<svg width="17" height="22" viewBox="0 0 17 22" fill="none" xmlns="http://www.w3.org/2000/svg">
<path d="M16.2273 0H3.28409C3.17784 0 3.09091 0.0883929 3.09091 0.196429V1.57143C3.09091 1.67946 3.17784 1.76786 3.28409 1.76786H15.2614V18.6607C15.2614 18.7687 15.3483 18.8571 15.4545 18.8571H16.8068C16.9131 18.8571 17 18.7687 17 18.6607V0.785714C17 0.351116 16.6547 0 16.2273 0ZM13.1364 3.14286H0.772727C0.345312 3.14286 0 3.49397 0 3.92857V16.9592C0 17.1679 0.0821021 17.3667 0.226988 17.5141L4.41179 21.7692C4.46491 21.8232 4.52528 21.8674 4.59048 21.9042V21.9509H4.6919C4.77642 21.9828 4.86577 22 4.95753 22H13.1364C13.5638 22 13.9091 21.6489 13.9091 21.2143V3.92857C13.9091 3.49397 13.5638 3.14286 13.1364 3.14286ZM5.3608 20.4286H5.35597L1.73864 16.7504V16.7455H5.3608V20.4286Z" fill="#333333"/>
</svg>
